<svg width="8" height="16" viewBox="0 0 8 16" fill="none" xmlns="http://www.w3.org/2000/svg">
<path d="M0.351492 1.56033L6.44149 7.80783L0.351492 14.0553C0.242464 14.1669 0.181426 14.3168 0.181426 14.4728C0.181426 14.6289 0.242464 14.7787 0.351492 14.8903C0.404447 14.9444 0.467654 14.9873 0.537412 15.0166C0.60717 15.0459 0.682076 15.061 0.757742 15.061C0.833408 15.061 0.908313 15.0459 0.978071 15.0166C1.04783 14.9873 1.11104 14.9444 1.16399 14.8903L7.64399 8.24408C7.75776 8.12736 7.82143 7.97082 7.82143 7.80783C7.82143 7.64484 7.75776 7.48829 7.64399 7.37158L1.16524 0.725327C1.11225 0.670897 1.04888 0.627636 0.978895 0.598097C0.908906 0.568558 0.833709 0.55334 0.757742 0.55334C0.681774 0.55334 0.606577 0.568558 0.536588 0.598097C0.466599 0.627636 0.403237 0.670897 0.350242 0.725327C0.241214 0.836948 0.180176 0.986794 0.180176 1.14283C0.180176 1.29886 0.241214 1.4487 0.350242 1.56033H0.351492Z" fill="white"/>
</svg>
