<svg width="6" height="11" viewBox="0 0 6 11" fill="none" xmlns="http://www.w3.org/2000/svg">
<path d="M5.63107 10.2112C5.70262 10.1379 5.74268 10.0396 5.74268 9.93721C5.74268 9.83481 5.70262 9.73648 5.63107 9.66323L1.63369 5.56249L5.63107 1.46256C5.70262 1.38931 5.74268 1.29098 5.74268 1.18858C5.74268 1.08618 5.70262 0.987846 5.63107 0.914595C5.59629 0.878876 5.55471 0.850486 5.50878 0.8311C5.46285 0.811715 5.4135 0.801728 5.36365 0.801728C5.31379 0.801728 5.26445 0.811715 5.21852 0.8311C5.17259 0.850486 5.131 0.878876 5.09623 0.914595L0.845367 5.2762C0.770707 5.35279 0.728922 5.45552 0.728922 5.56249C0.728922 5.66945 0.770707 5.77218 0.845367 5.84877L5.09623 10.2104C5.131 10.2461 5.17259 10.2745 5.21852 10.2939C5.26445 10.3133 5.31379 10.3232 5.36365 10.3232C5.4135 10.3232 5.46285 10.3133 5.50878 10.2939C5.55471 10.2745 5.59629 10.2461 5.63107 10.2104V10.2112Z" fill="white"/>
</svg>
