<svg width="6" height="11" viewBox="0 0 6 11" fill="none" xmlns="http://www.w3.org/2000/svg">
<path d="M0.36893 0.788804C0.297381 0.862056 0.257324 0.960391 0.257324 1.06279C0.257324 1.16519 0.297381 1.26352 0.36893 1.33677L4.36631 5.43751L0.36893 9.53744C0.297381 9.61069 0.257324 9.70902 0.257324 9.81142C0.257324 9.91382 0.297381 10.0122 0.36893 10.0854C0.403708 10.1211 0.44529 10.1495 0.49122 10.1689C0.53715 10.1883 0.586498 10.1983 0.636352 10.1983C0.686205 10.1983 0.735554 10.1883 0.781484 10.1689C0.827415 10.1495 0.868996 10.1211 0.903774 10.0854L5.15463 5.7238C5.22929 5.64721 5.27108 5.54448 5.27108 5.43751C5.27108 5.33055 5.22929 5.22782 5.15463 5.15123L0.903774 0.789625C0.868996 0.753906 0.827415 0.725515 0.781484 0.70613C0.735554 0.686745 0.686205 0.676758 0.636352 0.676758C0.586498 0.676758 0.53715 0.686745 0.49122 0.70613C0.44529 0.725515 0.403708 0.753906 0.36893 0.789625V0.788804Z" fill="white"/>
</svg>
